<svg id="Capa_1" data-name="Capa 1" xmlns="http://www.w3.org/2000/svg" viewBox="0 0 144.75 26.36"><defs><style>.cls-1{fill:#fff;}</style></defs><path class="cls-1" d="M63.69,26.11c0-5,0-9.79,0-14.61,0-.88,0-1.72-1.45-1.52.54-1.21,1-2.29,1.48-3.36a24.59,24.59,0,0,0,1-2.3,1.35,1.35,0,0,1,1.71-1.06A8.12,8.12,0,0,0,74.5.35,2.27,2.27,0,0,1,75,0C76,.87,77,1.76,78,2.54a3.34,3.34,0,0,0,1.66.62c1.43.09,2.86,0,4.29,0a1.19,1.19,0,0,1,.91.43c.92,2,1.77,4.08,2.69,6.26-1.65-.08-1.53,1-1.53,2q0,6.16,0,12.35c0,.55.08,1.1.15,1.83H84.47c-1.47,0-2.93-.06-4.4,0-.91.05-1.17-.36-1.16-1.16,0-.27,0-.55,0-.83V9.86H76.36v6.77H73.42V9.87H70.89v3.86c0,3.52,0,7.05,0,10.57,0,1.74-.1,1.81-1.83,1.81Z"/><path class="cls-1" d="M45.46,26h-2V9.86h3.17c.67,3.38,1.35,6.8,2,10.21h.2c.66-3.37,1.31-6.74,2-10.14h3.26V26H52.18V13l-.11,0q-1.24,6.5-2.49,13c-1.5.3-1.51.3-1.78-1.06-.75-3.89-1.49-7.78-2.34-11.66Z"/><path class="cls-1" d="M0,26V9.92c1.63,0,3.35-.06,5.07,0a1.49,1.49,0,0,1,1.33,1.63,27.76,27.76,0,0,1,0,3.87,7.87,7.87,0,0,1-.89,2,3,3,0,0,1,1,2.79c0,1.26,0,2.52,0,3.77S5.9,25.91,4.57,26C3.05,26.09,1.52,26,0,26Zm2.31-1.75c1.47.46,2,.13,2-1.34q0-1.51,0-3c0-1.55-.31-1.78-2-1.44Zm0-12.71v5c1.75.16,1.92,0,1.92-1.62,0-.56,0-1.11,0-1.67C4.25,11.53,4.13,11.42,2.33,11.56Z"/><path class="cls-1" d="M32.29,9.86H34.6V22.92c0,3-2.25,4.35-5,3.08a2.53,2.53,0,0,1-1.38-2.59c0-3.8,0-7.6,0-11.4,0-.69-.07-1.38-.11-2.14h2.27q0,6.56,0,13.11a1.75,1.75,0,0,0,.17,1,1.41,1.41,0,0,0,1,.58c.28,0,.63-.38.81-.67a2,2,0,0,0,.08-.92c0-3.8,0-7.6,0-11.4C32.43,11,32.34,10.48,32.29,9.86Z"/><path class="cls-1" d="M110.26,9.85h2c0,4.42,0,8.8,0,13.18a1.73,1.73,0,0,0,.18,1,1.43,1.43,0,0,0,1,.6,1.18,1.18,0,0,0,.85-.6,2.26,2.26,0,0,0,.17-1.11c0-3.77,0-7.53,0-11.3,0-.55-.09-1.11-.15-1.75h2.17c0,4.63,0,9.28,0,13.93a2.19,2.19,0,0,1-2.16,2.37,6.58,6.58,0,0,1-1.66,0,2.31,2.31,0,0,1-2.36-2.62c0-3.46,0-6.91,0-10.36Z"/><path class="cls-1" d="M95.19,17.87c0-1.91,0-3.83,0-5.74a2.27,2.27,0,0,1,2.24-2.51,7.19,7.19,0,0,1,2.07.06,2.07,2.07,0,0,1,1.82,2.11c0,4.07,0,8.15,0,12.22a1.93,1.93,0,0,1-1.6,2,8.44,8.44,0,0,1-2.88,0,2.08,2.08,0,0,1-1.65-2.24c0-2,0-4,0-6Zm4.19.12c0-1.68,0-3.35,0-5,0-.28.08-.63-.06-.82-.27-.39-.66-.93-1-1s-.73.55-1,.91c-.13.16-.08.47-.08.72q0,5.11,0,10.25a1.51,1.51,0,0,0,.11.81c.25.32.63.75,1,.75s.75-.39,1-.72a2,2,0,0,0,.13-1C99.39,21.27,99.38,19.63,99.38,18Z"/><path class="cls-1" d="M131,14.22h-1.85a10.24,10.24,0,0,0,0-2.08c-.08-.37-.54-.66-.82-1-.26.33-.69.63-.73,1-.17,1.66-.18,3.31,1.27,4.52,2.37,2,2.59,4.6,2.35,7.4a2.61,2.61,0,0,1-2.89,2.25c-1.59,0-2.53-.84-2.58-2.26,0-.84,0-1.67,0-2.6h1.81a11.08,11.08,0,0,0,0,2.16c.08.41.55.73.84,1.1.25-.36.67-.69.72-1.08.29-2.09,0-4-1.75-5.49-2.14-1.77-1.95-4.17-1.78-6.54.09-1.3,1.45-2.16,3.05-2.09A2.14,2.14,0,0,1,131,11.74C131,12.54,131,13.33,131,14.22Z"/><path class="cls-1" d="M20.2,24.39v1.66h-5V9.86h2.35V24.39Z"/><path class="cls-1" d="M142.35,24.44h2.4v1.49h-4.61v-16h4.6v1.5h-2.39Z"/><path class="cls-1" d="M73.32,26V18.52h3V26Z"/><path class="cls-1" d="M143.07,18.22c-.57-1.46.65-1.75,1.49-2.34C144.9,17.51,144.7,17.81,143.07,18.22Z"/></svg>