<?xml version="1.0" encoding="UTF-8"?>
<svg id="Capa_2" data-name="Capa 2" xmlns="http://www.w3.org/2000/svg" viewBox="0 0 79.26 90.21">
  <defs>
    <style>
      .cls-1, .cls-2 {
        stroke-width: 0px;
      }

      .cls-2 {
        fill: #fff;
      }
    </style>
  </defs>
  <g id="Capa_1-2" data-name="Capa 1">
    <g>
      <path class="cls-2" d="m59.72,66.19c2.23-5.63,1.45-10.13-3.34-13.75,1.45-1.82,1.74-3.94,1.75-6.17.02-5.66-3.41-7.79-8.31-7.26-1.58.17-3.14.84-4.62,1.47-1.4.6-2.28,1.75-2.44,3.35-.06.6-.19,1.2-.23,1.81-.22,3.64-.7,4.04-4.37,3.4-.38-.07-.89-.65-.96-1.06-.25-1.47-.18-3.01-.54-4.44-.23-.92-.8-1.97-1.54-2.52-2.73-2.04-5.85-2.57-9.18-1.77-2.82.68-4.11,2.78-4.44,5.36-.34,2.69-.27,5.44,1.63,7.71-4.83,5.05-5.55,8.14-3.08,13.52-1.37.32-2.51.1-3.61-.77-2.5-1.98-3.44-4.75-3.83-7.72-.2-1.5-.06-3.05.05-4.57.24-3.36.53-6.71.85-10.06.69-7.33,3.16-13.58,10.11-17.33,5.81-3.14,11.87-5.1,18.54-4.47,6.7.63,12.7,3.13,17.92,7.35,2.24,1.82,3.21,4.55,4.37,7.1,1.53,3.37,1.62,6.96,1.73,10.58.08,2.47.61,4.91.84,7.38.42,4.58-.42,8.8-4.15,11.89-.78.64-2.08.66-3.14.96Zm.76-30.06l.2-.31c-.97-.76-1.89-1.6-2.91-2.27-3.82-2.47-7.78-2.19-11.76-.43-.38.17-.55.84-.81,1.27.49.06,1.07.33,1.44.15,3.25-1.52,6.48-1.57,9.75-.1,1.35.6,2.72,1.13,4.09,1.7Zm-41.35-.05c1.36-.56,2.74-1.08,4.08-1.68,3.23-1.44,6.4-1.37,9.61.1.4.18.98-.03,1.48-.06-.27-.47-.44-1.2-.84-1.36-1.24-.51-2.54-.97-3.86-1.17-4.24-.67-7.7.88-10.47,4.17Z"/>
      <path class="cls-2" d="m38.56,90.21c-3.11-.28-7.47-.48-11.76-1.11-6.99-1.04-11.36-6.76-10.93-13.86.06-1.06,1.05-2.02,2.1-2.06.99-.04.79.73.85,1.28.47,4.52,3.02,7.6,7.33,8.72.9.23,1.84.36,2.77.37,7.26.03,14.51.03,21.77.01,5.38-.02,9.43-3.65,10.03-8.88.06-.52.53-1.44.77-1.43.99.05,2.06.45,2.12,1.64.22,3.97-.65,7.6-3.55,10.56-2.96,3.03-6.77,3.84-10.72,4.2-3.17.29-6.35.34-10.77.56Z"/>
      <path class="cls-2" d="m39.34,61.27c0,1.26-.13,2.54.04,3.78.19,1.43-.45,2.25-1.5,3-2.67,1.9-5.65,2.01-8.73,1.62-.88-.11-1.75-.3-2.62-.47-3.77-.7-6.36-3.44-6.91-7.3-.52-3.69,1.46-7.51,4.74-9.07.45-.22.99-.38,1.48-.37,3.45.06,6.9.05,10.33.31,2.15.16,3.24,1.68,3.25,3.86,0,1.54,0,3.08,0,4.63h-.09Z"/>
      <path class="cls-2" d="m40.09,61.18c0-1.5,0-2.99,0-4.49,0-2.2,1.07-3.73,3.22-3.9,3.48-.28,7.01-.55,10.47-.25,2.99.26,4.84,2.6,5.75,5.32,1.2,3.6.19,6.82-2.49,9.48-.55.54-1.27,1.01-2,1.24-3.78,1.19-7.63,2-11.5.46-1.1-.44-2.05-1.27-3.02-1.98-.21-.15-.33-.55-.34-.84-.03-1.68-.02-3.36-.02-5.04-.02,0-.05,0-.07,0Z"/>
      <path class="cls-2" d="m37.21,14.26c.17-1.62.38-2.91.41-4.21.05-1.86.08-3.72-.07-5.57-.22-2.66.26-3.5,2.85-4.06,4.35-.94,8.45-.31,12.29,1.98,1.15.68,1.68,1.74,1.15,2.82-1.56,3.24-1.7,6.78-2.36,10.2-.02.13-.11.24-.28.58-4.4-1.93-9.04-2.4-14-1.74Z"/>
      <path class="cls-2" d="m79.26,20.46c-.29,2.36-.7,5.44-2.83,7.91-3.01,3.5-8.68,3.89-12.33,1.05-2.79-2.17-4.47-5.14-6.1-8.12-.87-1.59-.52-3.41.29-5.02,1.54-3.06,7.94-7.26,12.09-6.67,5.66.81,9.02,4.38,8.88,10.85Zm-2.1.2c.7-3.67-3.39-9.02-6.75-8.99-1.61.01-3.27.17-4.8.63-4.27,1.3-6.31,6.48-3.96,10.23,1.43,2.28,3.22,4.35,4.95,6.43.43.52,1.32,1.07,1.91.97,1.71-.27,3.55-.55,5.03-1.38,2.99-1.67,3.64-4.67,3.63-7.9Z"/>
      <path class="cls-2" d="m0,19.64C-.02,10.63,9.07,7.92,14.2,10.5c2.41,1.21,4.68,2.54,6.35,4.73,1.74,2.29,1.82,4.84.32,7.3-1.44,2.36-2.88,4.68-5.01,6.53-5.3,4.61-13.07,1.63-14.47-3.73C.9,23.45.46,21.54,0,19.64Zm2.38,1.09c.13,4.19.83,6.1,3.63,7.87,2.99,1.89,5.87,2.34,8.11-.88,1.15-1.65,2.45-3.19,3.6-4.84,2.95-4.23.08-8.78-3.04-10.32-6.23-3.06-12.52,1.17-12.3,8.16Z"/>
      <path class="cls-2" d="m54.7,23.33c-7.22-3.75-14.59-4.66-22.52-2.85.17-1.13.21-2.06.49-2.91.11-.35.73-.67,1.16-.74,6.75-1.12,13.32-.72,19.63,2.23,1.15.54,1.93,1.05,1.45,2.48-.16.47-.13,1-.21,1.79Z"/>
      <path class="cls-2" d="m28.28,71.54c.56,0,1.15-.11,1.68.04.39.11,1.02.59.98.8-.08.45-.49,1.16-.83,1.2-1.2.15-2.43.15-3.63.02-.36-.04-.87-.71-.9-1.11-.02-.29.61-.77,1.03-.9.51-.16,1.11-.04,1.67-.04Z"/>
      <path class="cls-2" d="m35.34,71.55c.56,0,1.13-.09,1.66.03.36.08.96.5.93.69-.08.47-.41,1.24-.71,1.27-1.32.14-2.68.12-4,0-.27-.03-.69-.76-.66-1.14.02-.31.59-.72.97-.81.57-.14,1.2-.04,1.8-.04h0Z"/>
      <path class="cls-2" d="m28.74,82.34c-.56,0-1.14.09-1.67-.03-.4-.09-.75-.45-1.12-.69.31-.47.57-1.28.94-1.34,1.18-.17,2.43-.18,3.6.02.4.07.66.93.98,1.43-.4.21-.78.51-1.21.6-.49.11-1.02.02-1.53.02h0Z"/>
      <path class="cls-2" d="m51.26,73.73c-.6-.03-1.29.1-1.78-.15-.43-.21-.64-.85-.95-1.3.37-.25.72-.68,1.1-.71,1.11-.1,2.23-.1,3.34,0,.37.04,1.04.62.99.76-.16.48-.49,1.06-.91,1.25-.51.23-1.18.1-1.79.13Z"/>
      <path class="cls-2" d="m44.36,71.54c.56,0,1.16-.11,1.67.04.39.11.93.56.94.87,0,.38-.44,1.08-.74,1.11-1.29.12-2.62.13-3.91-.02-.31-.03-.65-.8-.73-1.27-.03-.18.57-.62.94-.7.58-.12,1.21-.03,1.82-.03Z"/>
      <path class="cls-2" d="m35.21,82.34c-.56,0-1.13.09-1.67-.03-.41-.09-.77-.44-1.15-.67.31-.47.57-1.3.94-1.35,1.23-.16,2.51-.15,3.73.03.35.05.59.9.88,1.38-.4.22-.77.53-1.2.62-.49.11-1.02.03-1.53.03h0Z"/>
      <path class="cls-2" d="m50.76,82.35c-.51,0-1.04.09-1.53-.03-.42-.1-.79-.42-1.18-.64.34-.49.61-1.33,1.02-1.4,1.13-.2,2.33-.2,3.46-.01.42.07.71.9,1.05,1.38-.38.23-.74.57-1.16.65-.53.11-1.11.03-1.67.03h0Z"/>
      <path class="cls-2" d="m44.35,82.35c-.51,0-1.05.1-1.52-.03-.44-.12-.81-.49-1.2-.75.33-.45.6-1.22.99-1.28,1.13-.18,2.33-.2,3.46-.02.42.07.72.89,1.08,1.37-.42.23-.82.56-1.27.67-.48.12-1.02.03-1.53.03h0Z"/>
      <path class="cls-2" d="m22.38,70.37c.71.13,1.75-.34,1.77.96.02,1.31-.92,1.28-1.85,1.25-.83-.03-1.78.16-1.81-1.12-.03-1.52,1.15-.93,1.89-1.09Z"/>
      <path class="cls-2" d="m57.29,70.37c.73.12,1.74-.33,1.75.99.02,1.37-.97,1.21-1.85,1.21-.85,0-1.77.1-1.79-1.15-.02-1.53,1.18-.87,1.89-1.06Z"/>
      <path class="cls-2" d="m57.76,79.22c-.52.44-1.01.93-1.58,1.31-.32.21-.75.31-1.14.32-.1,0-.38-.59-.3-.79.18-.43.48-1.01.86-1.12.62-.18,1.34-.05,2.02-.05.05.11.09.21.14.32Z"/>
      <path class="cls-2" d="m21.95,78.8c.69.05,1.43-.03,2.06.2.36.13.6.74.78,1.18.07.17-.18.68-.27.68-.39-.02-.83-.08-1.14-.3-.58-.41-1.09-.93-1.63-1.4.07-.12.14-.24.2-.36Z"/>
      <path class="cls-2" d="m33.47,51.8c.65-1.54,1.57-2.22,3.25-2.44-1.19.89-2.1,1.58-3.25,2.44Z"/>
      <path class="cls-2" d="m42.93,49.44c1.86.28,2.5.8,2.87,2.17-.89-.67-1.8-1.36-2.87-2.17Z"/>
      <path class="cls-1" d="m76.17,20.8c.44-3.04-1.35-5.09-3.5-6.95-1.22-1.06-2.62-1.54-4.26-1.45-3.66.2-5.38,2.33-6.84,5.41-.37.79-.19,2.07.17,2.95,1.22,2.98,3.19,5.47,5.56,7.66.94.87,1.89,1.02,3.08.7,2.98-.8,6.23-3.68,5.79-8.32Z"/>
      <path class="cls-1" d="m3.32,21.11c-.51,3.4,2.07,7.08,5.88,7.97.8.19,1.97.08,2.58-.39,2.74-2.13,4.71-4.92,6.13-8.08.58-1.3.41-2.58-.35-3.74-.56-.86-1.17-1.7-1.84-2.48-1.58-1.85-5.29-2.69-7.37-1.49-3.05,1.77-5.32,4.15-5.03,8.22Z"/>
      <path class="cls-2" d="m76.17,20.8c.44,4.64-2.8,7.51-5.79,8.32-1.19.32-2.14.17-3.08-.7-2.37-2.19-4.33-4.68-5.56-7.66-.36-.88-.55-2.16-.17-2.95,1.45-3.07,3.18-5.21,6.84-5.41,1.64-.09,3.04.39,4.26,1.45,2.15,1.87,3.95,3.91,3.5,6.95Z"/>
      <path class="cls-2" d="m3.32,21.11c-.29-4.07,1.98-6.45,5.03-8.22,2.07-1.21,5.79-.36,7.37,1.49.67.78,1.28,1.62,1.84,2.48.76,1.17.94,2.44.35,3.74-1.42,3.17-3.39,5.95-6.13,8.08-.61.47-1.78.58-2.58.39-3.81-.89-6.39-4.58-5.88-7.97Z"/>
    </g>
  </g>
</svg>