<?xml version="1.0" encoding="UTF-8"?>
<svg id="Capa_2" data-name="Capa 2" xmlns="http://www.w3.org/2000/svg" viewBox="0 0 60.48 86.75">
  <defs>
    <style>
      .cls-1 {
        fill: #fff;
        stroke-width: 0px;
      }
    </style>
  </defs>
  <g id="Capa_1-2" data-name="Capa 1">
    <g>
      <path class="cls-1" d="m36.62,74.24c-.95.3-1.8.16-2.45-.63-.63-.77-.51-1.61-.15-2.47.34-.8.65-1.62.98-2.42.15-.37.25-.64-.36-.7-1.03-.1-1.71-.71-1.92-1.74-.07-.33-.22-.43-.53-.5-9.71-1.96-17.23-7.41-23.37-14.93-4.23-5.19-6.99-11.13-8.3-17.7C-2.42,18.34,7.37,3.61,22.12.6c16.14-3.3,31.29,7.35,33.48,23.78,1.91,14.32-2.57,26.67-12.24,37.25-.44.49-.95.92-1.47,1.33-.74.59-1.57,1.05-1.24,2.28.14.54-.27,1.11-.78,1.44-.45.29-.35.52-.1.86.66.9,1.23,1.85,1.74,2.84.82,1.6.15,2.96-1.6,3.3-.35.07-.71.12-1.07.18-.75.13-1.5.25-2.24.38Zm8.15-57.2c-.14-3.59-1.6-6.88-4.71-9.31-1.98-1.55-4.19-2.63-6.78-2.59-1.81.03-3.31.83-4.11,2.48-.71,1.45-.31,2.88.63,4.15.6.8,1.43,1.26,2.39,1.52,2.62.73,4.75,2.12,6.12,4.56.35.62.83,1.18,1.28,1.74.54.67,1.21,1.17,2.04,1.41,1.25.37,2.28-.12,2.77-1.34.29-.74.38-1.51.36-2.62Z"/>
      <path class="cls-1" d="m36.62,74.24c.75-.13,1.5-.25,2.24-.38-.17,1.13-.34,2.25-.52,3.38-.39,2.42,1.27,4.09,3.71,3.77,1.57-.21,2.98-.89,4.46-1.39,5.26-1.79,8.6-.87,12.15,3.4.57.69,1.05,1.47,1.6,2.18.36.45.27.73-.23.96-.19.09-.38.2-.53.33-.47.39-.76.34-1.1-.22-.74-1.24-1.66-2.36-2.71-3.35-2.09-1.97-4.48-2.53-7.24-1.7-1.84.55-3.58,1.41-5.47,1.79-1.65.33-3.22.19-4.65-.81-2.18-1.51-2.43-3.63-1.96-6.01.13-.64.36-1.27.26-1.95Z"/>
      <path class="cls-1" d="m44.77,17.03c.02,1.11-.07,1.89-.36,2.62-.48,1.22-1.52,1.71-2.77,1.34-.84-.25-1.51-.74-2.04-1.41-.45-.56-.93-1.12-1.28-1.74-1.37-2.43-3.5-3.82-6.12-4.56-.95-.27-1.79-.72-2.39-1.52-.94-1.27-1.34-2.7-.63-4.15.81-1.65,2.3-2.45,4.11-2.48,2.58-.04,4.8,1.05,6.78,2.59,3.11,2.44,4.56,5.72,4.71,9.31Z"/>
    </g>
  </g>
</svg>