<?xml version="1.0" encoding="UTF-8"?>
<svg id="Capa_2" data-name="Capa 2" xmlns="http://www.w3.org/2000/svg" viewBox="0 0 66.81 79.86">
  <defs>
    <style>
      .cls-1, .cls-2 {
        stroke-width: 0px;
      }

      .cls-2 {
        fill: #fff;
      }
    </style>
  </defs>
  <g id="Capa_1-2" data-name="Capa 1">
    <g>
      <path class="cls-2" d="m32.23,0c12.07.15,20.74,4.65,27.34,13.21,1.69,2.19,2.83,4.65,2.85,7.51.01,2.84.07,5.67.07,8.51,0,3.27.85,6.27,2.7,8.99,1.57,2.31,2.03,4.85,1.25,7.54-.21.72-.58,1.42-.99,2.06-3.99,6.22-7.57,12.65-10.58,19.41-2.7,6.08-7.36,9.91-13.84,11.6-6.23,1.64-12.33,1.31-18.3-1.03-5.21-2.05-8.75-5.89-10.96-10.97-2.84-6.53-6.32-12.69-10.18-18.66-2.07-3.21-2.17-6.45-.1-9.67,1.76-2.74,2.85-5.65,2.84-8.95,0-2.78.12-5.56.07-8.34-.06-2.97,1.02-5.51,2.71-7.82C11.83,6.98,18.09,2.77,25.83.91c2.46-.59,5.03-.73,6.4-.91Zm-9.21,52.04c-.25-4.67-.5-9.31-.76-13.96-.03-.61.15-.87.79-1.03,1.84-.44,3.37-1.49,4.76-2.72.91-.81.75-1.53-.33-2.01-1.09-.49-2.14-1.05-3.25-1.47-1.1-.42-2.24-.87-3.4-1.02-3.15-.4-6.07.03-8.23,2.75-.37.47-.98.75-1.51,1.07-.93.57-1.1,1.26-.37,2.08.34.39.82.73,1.3.91.98.37,1.99.67,3.01.88.6.13.75.35.77.95.08,2.72.18,5.45.35,8.16.1,1.63.34,3.25.53,4.93-.55.04-1.04.03-1.51.12-3.42.71-4.28,2.09-3.53,4.89,1.53,5.7,4.89,9.98,9.93,12.95,1.53.9,3.19,1.57,4.79,2.34-.16,2.59.44,3.9,2.5,4.53,2.99.91,6.07.89,9.07.01,1.88-.55,2.69-2,2.57-3.93-.01-.22-.04-.44-.06-.62.05-.06.07-.1.09-.11.26-.11.52-.22.79-.32,4.49-1.71,8.22-4.4,10.95-8.43,1.67-2.47,2.87-5.08,3.14-8.07.08-.92-.26-1.69-1.02-2.1-.93-.49-1.97-.81-2.98-1.15-.38-.13-.82-.08-1.27-.12.26-2.29.58-4.48.73-6.68.15-2.24.12-4.48.22-6.73,0-.2.32-.49.55-.56,1.05-.33,2.16-.51,3.18-.92.57-.23,1.09-.72,1.47-1.21.51-.66.29-1.23-.39-1.73-.86-.63-1.66-1.36-2.52-1.98-.82-.59-1.63-1.31-2.56-1.6-1.94-.62-4.02-.73-5.97-.11-1.91.6-3.72,1.52-5.56,2.32-1,.43-1.16,1.06-.33,1.82,1.41,1.29,2.93,2.47,4.85,2.87.67.14.81.44.79,1.03-.08,1.79-.07,3.58-.2,5.36-.2,2.88-.48,5.76-.73,8.69-.47.03-.82.05-1.17.07-.23-1.16-.64-1.61-1.71-1.81-.81-.15-1.63-.23-2.45-.31-3.97-.36-7.94-.31-11.9.23-1.14.15-1.99.61-2.13,1.89-.28-.01-.51-.02-.73-.04-.11,0-.22-.05-.57-.13Zm34.71-14.16c-2.14.1-3.86.92-4.98,2.85-2.11,3.66-.95,8.09,2.71,10.26,2.21,1.31,4.67.95,6.42-.93,2.35-2.53,2.48-7.46.22-10.08-1.14-1.32-2.54-2.18-4.37-2.11Zm-48.59,0c-2.38,0-4.47,1.46-5.38,3.74-.87,2.18-.86,4.37-.02,6.55,1.16,3.02,4.33,4.37,7.14,3.07,2.64-1.23,4.45-4.28,4.26-7.19-.23-3.57-2.77-6.17-6.01-6.18Z"/>
      <path class="cls-1" d="m23.03,52.04c.35.08.46.12.57.13.22.02.45.02.73.04.14-1.28.99-1.74,2.13-1.89,3.96-.53,7.92-.59,11.9-.23.82.07,1.64.16,2.45.31,1.07.2,1.48.65,1.71,1.81.34-.02.7-.04,1.17-.07.25-2.93.53-5.8.73-8.69.12-1.78.12-3.58.2-5.36.03-.59-.12-.88-.79-1.03-1.92-.41-3.44-1.59-4.85-2.87-.83-.76-.67-1.39.33-1.82,1.85-.79,3.65-1.72,5.56-2.32,1.95-.61,4.02-.51,5.97.11.93.3,1.74,1.01,2.56,1.6.87.62,1.66,1.35,2.52,1.98.68.5.9,1.06.39,1.73-.38.49-.91.99-1.47,1.21-1.02.41-2.12.59-3.18.92-.23.07-.54.36-.55.56-.1,2.24-.07,4.49-.22,6.73-.15,2.2-.47,4.39-.73,6.68.45.04.89,0,1.27.12,1.01.33,2.04.65,2.98,1.15.77.4,1.11,1.18,1.02,2.1-.27,3-1.47,5.61-3.14,8.07-2.73,4.03-6.45,6.72-10.95,8.43-.26.1-.52.21-.79.32-.02,0-.04.04-.09.11.02.18.05.4.06.62.12,1.93-.7,3.38-2.57,3.93-3,.88-6.08.89-9.07-.01-2.07-.63-2.67-1.94-2.5-4.53-1.6-.77-3.27-1.44-4.79-2.34-5.03-2.97-8.4-7.25-9.93-12.95-.75-2.8.11-4.17,3.53-4.89.46-.1.95-.08,1.51-.12-.19-1.68-.43-3.3-.53-4.93-.17-2.72-.28-5.44-.35-8.16-.02-.6-.17-.82-.77-.95-1.02-.21-2.04-.51-3.01-.88-.48-.18-.95-.52-1.3-.91-.73-.82-.56-1.51.37-2.08.53-.32,1.14-.61,1.51-1.07,2.16-2.71,5.08-3.15,8.23-2.75,1.16.15,2.29.6,3.4,1.02,1.11.42,2.17.99,3.25,1.47,1.08.48,1.24,1.21.33,2.01-1.39,1.23-2.92,2.29-4.76,2.72-.65.15-.83.41-.79,1.03.26,4.65.51,9.29.76,13.96Zm30.99,1.42c-.05.32-.08.59-.14.86-.27,1.3-.43,2.65-.86,3.9-.94,2.74-2.72,4.98-4.77,6.96-3.07,2.97-6.72,4.81-11.01,5.22-5.36.51-10.64.39-15.37-2.67-4.15-2.69-7.27-6.23-8.52-11.14-.26-1-.36-2.04-.55-3.15-.68.46-.8,1.08-.64,1.69.41,1.59.68,3.25,1.39,4.71,2.63,5.41,6.92,9.04,12.57,11.06.27.1.59.04.89.02.47-.03.95-.18,1.41-.12,3.34.45,6.67.46,10.01,0,.46-.06.94.1,1.41.12.32.02.68.06.97-.05,4.88-1.78,8.79-4.76,11.54-9.22,1.25-2.04,2.11-4.2,2.35-6.59.06-.6.02-1.2-.67-1.59Zm.44-17.41c.34-.16.52-.23.68-.33.91-.62.85-1.06-.05-1.65-.71-.45-1.34-1.04-1.95-1.62-.86-.8-1.71-1.58-2.77-1.9.61.54,1.03,1.26,1.59,1.84.69.71,1.45,1.36,2.27,1.92.91.62.95.6.23,1.73Zm-42.45-.18c.06-.46-.04-1.07.2-1.28,1.43-1.26,2.94-2.43,4.43-3.63-1.33-.03-2.11.78-2.95,1.54-.65.58-1.31,1.17-2.03,1.65-.74.5-.83.8-.17,1.4.2.18.47.3.52.34Z"/>
      <path class="cls-1" d="m57.74,37.88c1.84-.07,3.24.79,4.37,2.11,2.26,2.62,2.13,7.55-.22,10.08-1.75,1.88-4.2,2.24-6.42.93-3.66-2.16-4.82-6.6-2.71-10.26,1.12-1.94,2.84-2.76,4.98-2.85Zm2.04,2.83c-.7-.02-1.32.54-1.35,1.25-.04.74.56,1.37,1.31,1.37.73,0,1.29-.55,1.3-1.28.01-.73-.54-1.31-1.26-1.33Z"/>
      <path class="cls-1" d="m9.15,37.88c3.24,0,5.78,2.61,6.01,6.18.19,2.9-1.62,5.96-4.26,7.19-2.8,1.31-5.98-.05-7.14-3.07-.84-2.18-.85-4.37.02-6.55.91-2.28,3-3.74,5.38-3.74Zm-.53,3.87c.02-.71-.55-1.31-1.26-1.34-.74-.03-1.38.58-1.38,1.31,0,.7.59,1.29,1.31,1.3.72.01,1.31-.55,1.33-1.27Z"/>
      <path class="cls-2" d="m54.02,53.46c.7.39.74.99.67,1.59-.24,2.39-1.1,4.55-2.35,6.59-2.74,4.46-6.66,7.45-11.54,9.22-.29.11-.64.07-.97.05-.47-.02-.95-.18-1.41-.12-3.34.46-6.67.45-10.01,0-.46-.06-.94.09-1.41.12-.3.02-.63.08-.89-.02-5.65-2.02-9.94-5.64-12.57-11.06-.7-1.45-.98-3.12-1.39-4.71-.16-.61-.04-1.23.64-1.69.19,1.1.29,2.14.55,3.15,1.25,4.92,4.37,8.46,8.52,11.14,4.72,3.06,10,3.19,15.37,2.67,4.29-.41,7.94-2.25,11.01-5.22,2.05-1.98,3.82-4.22,4.77-6.96.43-1.25.59-2.59.86-3.9.06-.27.09-.55.14-.86Z"/>
      <path class="cls-2" d="m54.46,36.05c.72-1.13.67-1.11-.23-1.73-.81-.56-1.58-1.21-2.27-1.92-.56-.58-.99-1.3-1.59-1.84,1.06.32,1.91,1.1,2.77,1.9.62.58,1.25,1.16,1.95,1.62.9.58.96,1.02.05,1.65-.16.11-.34.17-.68.33Z"/>
      <path class="cls-2" d="m12,35.86s-.31-.15-.52-.34c-.67-.6-.58-.9.17-1.4.72-.48,1.38-1.06,2.03-1.65.84-.76,1.62-1.57,2.95-1.54-1.49,1.2-3,2.37-4.43,3.63-.24.21-.14.82-.2,1.28Z"/>
      <path class="cls-2" d="m59.77,40.71c.72.02,1.27.61,1.26,1.33-.01.73-.58,1.29-1.3,1.28-.75,0-1.35-.63-1.31-1.37.04-.71.65-1.27,1.35-1.25Z"/>
      <path class="cls-2" d="m8.62,41.76c-.02.72-.61,1.28-1.33,1.27-.71-.01-1.3-.6-1.31-1.3,0-.73.64-1.35,1.38-1.31.71.03,1.28.64,1.26,1.34Z"/>
    </g>
  </g>
</svg>