<?xml version="1.0" encoding="UTF-8"?>
<svg id="Capa_2" data-name="Capa 2" xmlns="http://www.w3.org/2000/svg" viewBox="0 0 99.9 71.86">
  <defs>
    <style>
      .cls-1 {
        fill: #fff;
        stroke-width: 0px;
      }
    </style>
  </defs>
  <g id="Capa_1-2" data-name="Capa 1">
    <g>
      <path class="cls-1" d="m44.03,66.59v-2.67c-.46,0-.87,0-1.29,0-13.61,0-27.22,0-40.84-.01-1.82,0-1.9-.08-1.9-1.88C0,41.93,0,21.82,0,1.71,0,.11.11,0,1.74,0,33.89,0,66.03,0,98.17,0c1.58,0,1.73.15,1.73,1.76,0,20.14,0,40.28,0,60.42,0,1.62-.12,1.74-1.73,1.74-12.27,0-24.53,0-36.8.01q-1.33,0-1.33,1.31c0,.42,0,.84,0,1.36.5,0,.89,0,1.27,0,4.23,0,8.46,0,12.69,0,1.19,0,1.45.27,1.47,1.43,0,.75,0,1.51,0,2.26,0,1.33-.22,1.56-1.53,1.56-7.22,0-14.43.02-21.65.01-6.43,0-12.86-.01-19.29-.02-1.39,0-1.58-.2-1.59-1.59,0-.72,0-1.44,0-2.16,0-1.29.2-1.49,1.47-1.5,3.38,0,6.76,0,10.14,0,.29,0,.58,0,1.01,0ZM6.19,58.11c.48,0,.86,0,1.25,0,28.14,0,56.27,0,84.41,0,2.13,0,1.84.26,1.84-1.82.01-16.17,0-32.34,0-48.5,0-.38-.04-.76-.07-1.23-.42,0-.74,0-1.06,0-28.4,0-56.8,0-85.2-.02-.98,0-1.27.22-1.27,1.24.03,16.4.03,32.8.03,49.19,0,.35.04.7.06,1.14Zm40,11.07c-.04.16-.07.32-.11.48-.72-.07-1.44-.15-2.16-.2-.94-.07-1.87-.15-2.81-.16-1.17-.01-2.45.67-3.38-.65-.05-.07-.25-.06-.38-.06-.88,0-1.76,0-2.56,0-.17.42-.31.75-.49,1.19.24.03.54.08.85.08,5.37.05,10.75.11,16.12.13,7.15.02,14.29,0,21.44.01.61,0,.98-.08.97-.83,0-.62-.25-.78-.82-.77-11.04.07-22.08.13-33.13.19-.06,0-.11.05-.17.08,1.83.15,3.63.13,5.43.17.4,0,.79.22,1.19.33Zm.84-3.69c0-.13.01-.26.02-.39h10.7c-3.61-.18-7.21-.19-10.82-.16-.28,0-.56.27-.84.41.28.14.56.39.85.39,3.28.03,6.56.02,9.84.02.32,0,.65,0,.97,0,0-.09,0-.18,0-.27h-10.72Zm6.41-3.55c.48-.62.98-.98.94-1.29-.04-.32-.59-.79-.92-.79-.34,0-.96.47-.96.74,0,.36.48.72.94,1.35Z"/>
      <path class="cls-1" d="m46.19,69.18c-.4-.12-.79-.32-1.19-.33-1.8-.04-3.6-.02-5.43-.17.06-.03.11-.08.17-.08,11.04-.06,22.09-.12,33.13-.19.57,0,.81.15.82.77.01.75-.36.83-.97.83-7.15-.01-14.29,0-21.44-.01-5.37-.02-10.75-.08-16.12-.13-.3,0-.61-.06-.85-.08.18-.44.32-.77.49-1.19.8,0,1.68,0,2.56,0,.13,0,.33-.01.38.06.92,1.32,2.21.63,3.38.65.94.01,1.87.09,2.81.16.72.05,1.44.13,2.16.2.04-.16.07-.32.11-.48Z"/>
      <path class="cls-1" d="m47.02,65.49h10.72c0,.09,0,.18,0,.27-.32,0-.65,0-.97,0-3.28,0-6.56,0-9.84-.02-.28,0-.56-.26-.85-.39.28-.14.56-.41.84-.41,3.6-.03,7.21-.02,10.82.16h-10.7c0,.13-.01.26-.02.39Z"/>
      <path class="cls-1" d="m53.43,61.94c-.47-.62-.94-.98-.94-1.35,0-.26.62-.74.96-.74.33,0,.89.48.92.79.03.31-.46.67-.94,1.29Z"/>
    </g>
  </g>
</svg>